<svg xmlns="http://www.w3.org/2000/svg" xmlns:xlink="http://www.w3.org/1999/xlink" width="100" zoomAndPan="magnify" viewBox="0 0 75 74.999997" height="100" preserveAspectRatio="xMidYMid meet" version="1.0"><defs><clipPath id="4f2b403d4c"><path d="M 33.375 0 L 41.625 0 L 41.625 8.25 L 33.375 8.25 Z M 33.375 0 " clip-rule="nonzero"/></clipPath><clipPath id="948c655974"><path d="M 0.375 0 L 8.625 0 L 8.625 8.25 L 0.375 8.25 Z M 0.375 0 " clip-rule="nonzero"/></clipPath><clipPath id="8fa7338c7c"><rect x="0" width="9" y="0" height="9"/></clipPath><clipPath id="5489f0d338"><path d="M 33.375 25.03125 L 41.625 25.03125 L 41.625 33.28125 L 33.375 33.28125 Z M 33.375 25.03125 " clip-rule="nonzero"/></clipPath><clipPath id="e077c93d69"><path d="M 0.375 0.03125 L 8.625 0.03125 L 8.625 8.28125 L 0.375 8.28125 Z M 0.375 0.03125 " clip-rule="nonzero"/></clipPath><clipPath id="91e8dcee19"><rect x="0" width="9" y="0" height="9"/></clipPath><clipPath id="ae48097a4d"><path d="M 58.40625 25.03125 L 66.65625 25.03125 L 66.65625 33.28125 L 58.40625 33.28125 Z M 58.40625 25.03125 " clip-rule="nonzero"/></clipPath><clipPath id="319843b2a9"><path d="M 0.40625 0.03125 L 8.65625 0.03125 L 8.65625 8.28125 L 0.40625 8.28125 Z M 0.40625 0.03125 " clip-rule="nonzero"/></clipPath><clipPath id="2c8ede044a"><rect x="0" width="9" y="0" height="9"/></clipPath><clipPath id="13249ba81e"><path d="M 33.375 8.34375 L 41.625 8.34375 L 41.625 16.59375 L 33.375 16.59375 Z M 33.375 8.34375 " clip-rule="nonzero"/></clipPath><clipPath id="9fa72ee313"><path d="M 0.375 0.34375 L 8.625 0.34375 L 8.625 8.59375 L 0.375 8.59375 Z M 0.375 0.34375 " clip-rule="nonzero"/></clipPath><clipPath id="97b5ca54bb"><rect x="0" width="9" y="0" height="9"/></clipPath><clipPath id="fcfad4fd4b"><path d="M 41.71875 8.34375 L 49.96875 8.34375 L 49.96875 16.59375 L 41.71875 16.59375 Z M 41.71875 8.34375 " clip-rule="nonzero"/></clipPath><clipPath id="e9273fc393"><path d="M 0.71875 0.34375 L 8.96875 0.34375 L 8.96875 8.59375 L 0.71875 8.59375 Z M 0.71875 0.34375 " clip-rule="nonzero"/></clipPath><clipPath id="00e4e943d5"><rect x="0" width="9" y="0" height="9"/></clipPath><clipPath id="5a24354719"><path d="M 25.03125 8.34375 L 33.28125 8.34375 L 33.28125 16.59375 L 25.03125 16.59375 Z M 25.03125 8.34375 " clip-rule="nonzero"/></clipPath><clipPath id="9a24ae1caa"><path d="M 0.03125 0.34375 L 8.28125 0.34375 L 8.28125 8.59375 L 0.03125 8.59375 Z M 0.03125 0.34375 " clip-rule="nonzero"/></clipPath><clipPath id="3fc140675f"><rect x="0" width="9" y="0" height="9"/></clipPath><clipPath id="f27b66c25a"><path d="M 41.71875 33.375 L 49.96875 33.375 L 49.96875 41.625 L 41.71875 41.625 Z M 41.71875 33.375 " clip-rule="nonzero"/></clipPath><clipPath id="6a3aa4958d"><path d="M 0.71875 0.375 L 8.96875 0.375 L 8.96875 8.625 L 0.71875 8.625 Z M 0.71875 0.375 " clip-rule="nonzero"/></clipPath><clipPath id="76e285af6d"><rect x="0" width="9" y="0" height="9"/></clipPath><clipPath id="2abc69d674"><path d="M 0 33.375 L 8.25 33.375 L 8.25 41.625 L 0 41.625 Z M 0 33.375 " clip-rule="nonzero"/></clipPath><clipPath id="26cdcdf5a2"><path d="M 0 0.375 L 8.25 0.375 L 8.25 8.625 L 0 8.625 Z M 0 0.375 " clip-rule="nonzero"/></clipPath><clipPath id="3208a41528"><rect x="0" width="9" y="0" height="9"/></clipPath><clipPath id="47dbb68c27"><path d="M 66.75 33.375 L 75 33.375 L 75 41.625 L 66.75 41.625 Z M 66.75 33.375 " clip-rule="nonzero"/></clipPath><clipPath id="117f6832e4"><path d="M 0.75 0.375 L 9 0.375 L 9 8.625 L 0.75 8.625 Z M 0.75 0.375 " clip-rule="nonzero"/></clipPath><clipPath id="0e217df352"><rect x="0" width="9" y="0" height="9"/></clipPath><clipPath id="f0b56c8951"><path d="M 58.40625 33.375 L 66.65625 33.375 L 66.65625 41.625 L 58.40625 41.625 Z M 58.40625 33.375 " clip-rule="nonzero"/></clipPath><clipPath id="00bd1ef3ad"><path d="M 0.40625 0.375 L 8.65625 0.375 L 8.65625 8.625 L 0.40625 8.625 Z M 0.40625 0.375 " clip-rule="nonzero"/></clipPath><clipPath id="3f882de403"><rect x="0" width="9" y="0" height="9"/></clipPath><clipPath id="5d1d80b3f3"><path d="M 50.0625 33.375 L 58.3125 33.375 L 58.3125 41.625 L 50.0625 41.625 Z M 50.0625 33.375 " clip-rule="nonzero"/></clipPath><clipPath id="e15fb0eb3b"><path d="M 0.0625 0.375 L 8.3125 0.375 L 8.3125 8.625 L 0.0625 8.625 Z M 0.0625 0.375 " clip-rule="nonzero"/></clipPath><clipPath id="3a1aa92abf"><rect x="0" width="9" y="0" height="9"/></clipPath><clipPath id="788671a174"><path d="M 33.375 33.375 L 41.625 33.375 L 41.625 41.625 L 33.375 41.625 Z M 33.375 33.375 " clip-rule="nonzero"/></clipPath><clipPath id="41e9e948d0"><path d="M 0.375 0.375 L 8.625 0.375 L 8.625 8.625 L 0.375 8.625 Z M 0.375 0.375 " clip-rule="nonzero"/></clipPath><clipPath id="296b3fdd70"><rect x="0" width="9" y="0" height="9"/></clipPath><clipPath id="89c5f14845"><path d="M 25.03125 33.375 L 33.28125 33.375 L 33.28125 41.625 L 25.03125 41.625 Z M 25.03125 33.375 " clip-rule="nonzero"/></clipPath><clipPath id="0ca43c0c2a"><path d="M 0.03125 0.375 L 8.28125 0.375 L 8.28125 8.625 L 0.03125 8.625 Z M 0.03125 0.375 " clip-rule="nonzero"/></clipPath><clipPath id="ddfc8a1c38"><rect x="0" width="9" y="0" height="9"/></clipPath><clipPath id="2db9847832"><path d="M 16.6875 33.375 L 24.9375 33.375 L 24.9375 41.625 L 16.6875 41.625 Z M 16.6875 33.375 " clip-rule="nonzero"/></clipPath><clipPath id="1a9c878b50"><path d="M 0.6875 0.375 L 8.9375 0.375 L 8.9375 8.625 L 0.6875 8.625 Z M 0.6875 0.375 " clip-rule="nonzero"/></clipPath><clipPath id="b16b431048"><rect x="0" width="9" y="0" height="9"/></clipPath><clipPath id="392cae51c3"><path d="M 8.34375 33.375 L 16.59375 33.375 L 16.59375 41.625 L 8.34375 41.625 Z M 8.34375 33.375 " clip-rule="nonzero"/></clipPath><clipPath id="8fb8bc2444"><path d="M 0.34375 0.375 L 8.59375 0.375 L 8.59375 8.625 L 0.34375 8.625 Z M 0.34375 0.375 " clip-rule="nonzero"/></clipPath><clipPath id="b3dd2e8a15"><rect x="0" width="9" y="0" height="9"/></clipPath><clipPath id="a7764f9db4"><path d="M 8.34375 25.03125 L 16.59375 25.03125 L 16.59375 33.28125 L 8.34375 33.28125 Z M 8.34375 25.03125 " clip-rule="nonzero"/></clipPath><clipPath id="f361637592"><path d="M 0.34375 0.03125 L 8.59375 0.03125 L 8.59375 8.28125 L 0.34375 8.28125 Z M 0.34375 0.03125 " clip-rule="nonzero"/></clipPath><clipPath id="9e4120feb2"><rect x="0" width="9" y="0" height="9"/></clipPath><clipPath id="e896f53f2e"><path d="M 16.6875 25.03125 L 24.9375 25.03125 L 24.9375 33.28125 L 16.6875 33.28125 Z M 16.6875 25.03125 " clip-rule="nonzero"/></clipPath><clipPath id="6994100b49"><path d="M 0.6875 0.03125 L 8.9375 0.03125 L 8.9375 8.28125 L 0.6875 8.28125 Z M 0.6875 0.03125 " clip-rule="nonzero"/></clipPath><clipPath id="d212e9f747"><rect x="0" width="9" y="0" height="9"/></clipPath><clipPath id="3b1dec5dad"><path d="M 50.0625 25.03125 L 58.3125 25.03125 L 58.3125 33.28125 L 50.0625 33.28125 Z M 50.0625 25.03125 " clip-rule="nonzero"/></clipPath><clipPath id="89beac6a17"><path d="M 0.0625 0.03125 L 8.3125 0.03125 L 8.3125 8.28125 L 0.0625 8.28125 Z M 0.0625 0.03125 " clip-rule="nonzero"/></clipPath><clipPath id="67b018e4fc"><rect x="0" width="9" y="0" height="9"/></clipPath><clipPath id="31f5ce3b99"><path d="M 41.71875 25.03125 L 49.96875 25.03125 L 49.96875 33.28125 L 41.71875 33.28125 Z M 41.71875 25.03125 " clip-rule="nonzero"/></clipPath><clipPath id="8de55865ec"><path d="M 0.71875 0.03125 L 8.96875 0.03125 L 8.96875 8.28125 L 0.71875 8.28125 Z M 0.71875 0.03125 " clip-rule="nonzero"/></clipPath><clipPath id="6244f90c1a"><rect x="0" width="9" y="0" height="9"/></clipPath><clipPath id="5d7ae29c95"><path d="M 25.03125 25.03125 L 33.28125 25.03125 L 33.28125 33.28125 L 25.03125 33.28125 Z M 25.03125 25.03125 " clip-rule="nonzero"/></clipPath><clipPath id="9624d2a474"><path d="M 0.03125 0.03125 L 8.28125 0.03125 L 8.28125 8.28125 L 0.03125 8.28125 Z M 0.03125 0.03125 " clip-rule="nonzero"/></clipPath><clipPath id="32a4fbbb4f"><rect x="0" width="9" y="0" height="9"/></clipPath><clipPath id="25e284b5ae"><path d="M 33.375 16.6875 L 41.625 16.6875 L 41.625 24.9375 L 33.375 24.9375 Z M 33.375 16.6875 " clip-rule="nonzero"/></clipPath><clipPath id="be3e387b64"><path d="M 0.375 0.6875 L 8.625 0.6875 L 8.625 8.9375 L 0.375 8.9375 Z M 0.375 0.6875 " clip-rule="nonzero"/></clipPath><clipPath id="abf6f3f2e6"><rect x="0" width="9" y="0" height="9"/></clipPath><clipPath id="d1e478e8d0"><path d="M 50.0625 16.6875 L 58.3125 16.6875 L 58.3125 24.9375 L 50.0625 24.9375 Z M 50.0625 16.6875 " clip-rule="nonzero"/></clipPath><clipPath id="42fb0718f9"><path d="M 0.0625 0.6875 L 8.3125 0.6875 L 8.3125 8.9375 L 0.0625 8.9375 Z M 0.0625 0.6875 " clip-rule="nonzero"/></clipPath><clipPath id="54b4475942"><rect x="0" width="9" y="0" height="9"/></clipPath><clipPath id="3282813375"><path d="M 16.6875 16.6875 L 24.9375 16.6875 L 24.9375 24.9375 L 16.6875 24.9375 Z M 16.6875 16.6875 " clip-rule="nonzero"/></clipPath><clipPath id="8908fbcbfe"><path d="M 0.6875 0.6875 L 8.9375 0.6875 L 8.9375 8.9375 L 0.6875 8.9375 Z M 0.6875 0.6875 " clip-rule="nonzero"/></clipPath><clipPath id="b0335288d4"><rect x="0" width="9" y="0" height="9"/></clipPath><clipPath id="82a31a0917"><path d="M 25.03125 16.6875 L 33.28125 16.6875 L 33.28125 24.9375 L 25.03125 24.9375 Z M 25.03125 16.6875 " clip-rule="nonzero"/></clipPath><clipPath id="7ed29901f1"><path d="M 0.03125 0.6875 L 8.28125 0.6875 L 8.28125 8.9375 L 0.03125 8.9375 Z M 0.03125 0.6875 " clip-rule="nonzero"/></clipPath><clipPath id="63598ab2cf"><rect x="0" width="9" y="0" height="9"/></clipPath><clipPath id="abe906bd4f"><path d="M 41.71875 16.6875 L 49.96875 16.6875 L 49.96875 24.9375 L 41.71875 24.9375 Z M 41.71875 16.6875 " clip-rule="nonzero"/></clipPath><clipPath id="9a4b339f42"><path d="M 0.71875 0.6875 L 8.96875 0.6875 L 8.96875 8.9375 L 0.71875 8.9375 Z M 0.71875 0.6875 " clip-rule="nonzero"/></clipPath><clipPath id="f9a2437a16"><rect x="0" width="9" y="0" height="9"/></clipPath><clipPath id="1e02c96df2"><path d="M 33.375 41.71875 L 41.625 41.71875 L 41.625 49.96875 L 33.375 49.96875 Z M 33.375 41.71875 " clip-rule="nonzero"/></clipPath><clipPath id="7c94130e96"><path d="M 0.375 0.71875 L 8.625 0.71875 L 8.625 8.96875 L 0.375 8.96875 Z M 0.375 0.71875 " clip-rule="nonzero"/></clipPath><clipPath id="50708c4023"><rect x="0" width="9" y="0" height="9"/></clipPath><clipPath id="418f78a714"><path d="M 58.40625 41.71875 L 66.65625 41.71875 L 66.65625 49.96875 L 58.40625 49.96875 Z M 58.40625 41.71875 " clip-rule="nonzero"/></clipPath><clipPath id="ce09eb1f04"><path d="M 0.40625 0.71875 L 8.65625 0.71875 L 8.65625 8.96875 L 0.40625 8.96875 Z M 0.40625 0.71875 " clip-rule="nonzero"/></clipPath><clipPath id="ae0b996f41"><rect x="0" width="9" y="0" height="9"/></clipPath><clipPath id="95e24fe969"><path d="M 8.34375 41.71875 L 16.59375 41.71875 L 16.59375 49.96875 L 8.34375 49.96875 Z M 8.34375 41.71875 " clip-rule="nonzero"/></clipPath><clipPath id="a900001491"><path d="M 0.34375 0.71875 L 8.59375 0.71875 L 8.59375 8.96875 L 0.34375 8.96875 Z M 0.34375 0.71875 " clip-rule="nonzero"/></clipPath><clipPath id="6f891852da"><rect x="0" width="9" y="0" height="9"/></clipPath><clipPath id="686fecec73"><path d="M 16.6875 41.71875 L 24.9375 41.71875 L 24.9375 49.96875 L 16.6875 49.96875 Z M 16.6875 41.71875 " clip-rule="nonzero"/></clipPath><clipPath id="25169ea927"><path d="M 0.6875 0.71875 L 8.9375 0.71875 L 8.9375 8.96875 L 0.6875 8.96875 Z M 0.6875 0.71875 " clip-rule="nonzero"/></clipPath><clipPath id="0c7d957de7"><rect x="0" width="9" y="0" height="9"/></clipPath><clipPath id="12fab71e97"><path d="M 50.0625 41.71875 L 58.3125 41.71875 L 58.3125 49.96875 L 50.0625 49.96875 Z M 50.0625 41.71875 " clip-rule="nonzero"/></clipPath><clipPath id="128383b5a3"><path d="M 0.0625 0.71875 L 8.3125 0.71875 L 8.3125 8.96875 L 0.0625 8.96875 Z M 0.0625 0.71875 " clip-rule="nonzero"/></clipPath><clipPath id="3985b15a4a"><rect x="0" width="9" y="0" height="9"/></clipPath><clipPath id="df4eb0af15"><path d="M 41.71875 41.71875 L 49.96875 41.71875 L 49.96875 49.96875 L 41.71875 49.96875 Z M 41.71875 41.71875 " clip-rule="nonzero"/></clipPath><clipPath id="f240d5ab86"><path d="M 0.71875 0.71875 L 8.96875 0.71875 L 8.96875 8.96875 L 0.71875 8.96875 Z M 0.71875 0.71875 " clip-rule="nonzero"/></clipPath><clipPath id="72a930d991"><rect x="0" width="9" y="0" height="9"/></clipPath><clipPath id="46ca47819c"><path d="M 25.03125 41.71875 L 33.28125 41.71875 L 33.28125 49.96875 L 25.03125 49.96875 Z M 25.03125 41.71875 " clip-rule="nonzero"/></clipPath><clipPath id="51eb79b62c"><path d="M 0.03125 0.71875 L 8.28125 0.71875 L 8.28125 8.96875 L 0.03125 8.96875 Z M 0.03125 0.71875 " clip-rule="nonzero"/></clipPath><clipPath id="3018a50933"><rect x="0" width="9" y="0" height="9"/></clipPath><clipPath id="f5bc25d8a0"><path d="M 33.375 50.0625 L 41.625 50.0625 L 41.625 58.3125 L 33.375 58.3125 Z M 33.375 50.0625 " clip-rule="nonzero"/></clipPath><clipPath id="be5e2b0a34"><path d="M 0.375 0.0625 L 8.625 0.0625 L 8.625 8.3125 L 0.375 8.3125 Z M 0.375 0.0625 " clip-rule="nonzero"/></clipPath><clipPath id="c73f44a35d"><rect x="0" width="9" y="0" height="9"/></clipPath><clipPath id="b0129d1ca6"><path d="M 50.0625 50.0625 L 58.3125 50.0625 L 58.3125 58.3125 L 50.0625 58.3125 Z M 50.0625 50.0625 " clip-rule="nonzero"/></clipPath><clipPath id="d33edf5eef"><path d="M 0.0625 0.0625 L 8.3125 0.0625 L 8.3125 8.3125 L 0.0625 8.3125 Z M 0.0625 0.0625 " clip-rule="nonzero"/></clipPath><clipPath id="5dbc3a1122"><rect x="0" width="9" y="0" height="9"/></clipPath><clipPath id="cc15f6541a"><path d="M 16.6875 50.0625 L 24.9375 50.0625 L 24.9375 58.3125 L 16.6875 58.3125 Z M 16.6875 50.0625 " clip-rule="nonzero"/></clipPath><clipPath id="8df33ac74b"><path d="M 0.6875 0.0625 L 8.9375 0.0625 L 8.9375 8.3125 L 0.6875 8.3125 Z M 0.6875 0.0625 " clip-rule="nonzero"/></clipPath><clipPath id="538e81fe27"><rect x="0" width="9" y="0" height="9"/></clipPath><clipPath id="5baf728ce6"><path d="M 25.03125 50.0625 L 33.28125 50.0625 L 33.28125 58.3125 L 25.03125 58.3125 Z M 25.03125 50.0625 " clip-rule="nonzero"/></clipPath><clipPath id="1644640c14"><path d="M 0.03125 0.0625 L 8.28125 0.0625 L 8.28125 8.3125 L 0.03125 8.3125 Z M 0.03125 0.0625 " clip-rule="nonzero"/></clipPath><clipPath id="3c9a289b1e"><rect x="0" width="9" y="0" height="9"/></clipPath><clipPath id="f9da1f24e9"><path d="M 41.71875 50.0625 L 49.96875 50.0625 L 49.96875 58.3125 L 41.71875 58.3125 Z M 41.71875 50.0625 " clip-rule="nonzero"/></clipPath><clipPath id="167c163792"><path d="M 0.71875 0.0625 L 8.96875 0.0625 L 8.96875 8.3125 L 0.71875 8.3125 Z M 0.71875 0.0625 " clip-rule="nonzero"/></clipPath><clipPath id="06c707f27b"><rect x="0" width="9" y="0" height="9"/></clipPath><clipPath id="526e33f0f6"><path d="M 33.375 58.40625 L 41.625 58.40625 L 41.625 66.65625 L 33.375 66.65625 Z M 33.375 58.40625 " clip-rule="nonzero"/></clipPath><clipPath id="a983b1e97d"><path d="M 0.375 0.40625 L 8.625 0.40625 L 8.625 8.65625 L 0.375 8.65625 Z M 0.375 0.40625 " clip-rule="nonzero"/></clipPath><clipPath id="6f490a8af3"><rect x="0" width="9" y="0" height="9"/></clipPath><clipPath id="8dedf12a64"><path d="M 41.71875 58.40625 L 49.96875 58.40625 L 49.96875 66.65625 L 41.71875 66.65625 Z M 41.71875 58.40625 " clip-rule="nonzero"/></clipPath><clipPath id="5370a5a64b"><path d="M 0.71875 0.40625 L 8.96875 0.40625 L 8.96875 8.65625 L 0.71875 8.65625 Z M 0.71875 0.40625 " clip-rule="nonzero"/></clipPath><clipPath id="a5dd33e035"><rect x="0" width="9" y="0" height="9"/></clipPath><clipPath id="f9b57f85a1"><path d="M 25.03125 58.40625 L 33.28125 58.40625 L 33.28125 66.65625 L 25.03125 66.65625 Z M 25.03125 58.40625 " clip-rule="nonzero"/></clipPath><clipPath id="198b894923"><path d="M 0.03125 0.40625 L 8.28125 0.40625 L 8.28125 8.65625 L 0.03125 8.65625 Z M 0.03125 0.40625 " clip-rule="nonzero"/></clipPath><clipPath id="6dcd253af4"><rect x="0" width="9" y="0" height="9"/></clipPath><clipPath id="27777bb5ad"><path d="M 33.375 66.75 L 41.625 66.75 L 41.625 75 L 33.375 75 Z M 33.375 66.75 " clip-rule="nonzero"/></clipPath><clipPath id="544659463c"><path d="M 0.375 0.75 L 8.625 0.75 L 8.625 9 L 0.375 9 Z M 0.375 0.75 " clip-rule="nonzero"/></clipPath><clipPath id="bedb1924d5"><rect x="0" width="9" y="0" height="9"/></clipPath><clipPath id="53312fc85a"><rect x="0" width="75" y="0" height="75"/></clipPath></defs><rect x="-7.5" width="90" fill="#ffffff" y="-7.5" height="89.999996" fill-opacity="1"/><rect x="-7.5" width="90" fill="#ffffff" y="-7.5" height="89.999996" fill-opacity="1"/><g transform="matrix(1, 0, 0, 1, 0, -0.000000000000001893)"><g clip-path="url(#53312fc85a)"><g clip-path="url(#4f2b403d4c)"><g transform="matrix(1, 0, 0, 1, 33, -0.000000000000001893)"><g clip-path="url(#8fa7338c7c)"><g clip-path="url(#948c655974)"><path fill="#000000" d="M 0.375 0 L 8.625 0 L 8.625 8.25 L 0.375 8.25 Z M 0.375 0 " fill-opacity="1" fill-rule="nonzero"/></g></g></g></g><g clip-path="url(#5489f0d338)"><g transform="matrix(1, 0, 0, 1, 33, 25)"><g clip-path="url(#91e8dcee19)"><g clip-path="url(#e077c93d69)"><path fill="#000000" d="M 0.375 0.03125 L 8.625 0.03125 L 8.625 8.28125 L 0.375 8.28125 Z M 0.375 0.03125 " fill-opacity="1" fill-rule="nonzero"/></g></g></g></g><g clip-path="url(#ae48097a4d)"><g transform="matrix(1, 0, 0, 1, 58, 25)"><g clip-path="url(#2c8ede044a)"><g clip-path="url(#319843b2a9)"><path fill="#000000" d="M 0.40625 0.03125 L 8.65625 0.03125 L 8.65625 8.28125 L 0.40625 8.28125 Z M 0.40625 0.03125 " fill-opacity="1" fill-rule="nonzero"/></g></g></g></g><g clip-path="url(#13249ba81e)"><g transform="matrix(1, 0, 0, 1, 33, 8)"><g clip-path="url(#97b5ca54bb)"><g clip-path="url(#9fa72ee313)"><path fill="#000000" d="M 0.375 0.34375 L 8.625 0.34375 L 8.625 8.59375 L 0.375 8.59375 Z M 0.375 0.34375 " fill-opacity="1" fill-rule="nonzero"/></g></g></g></g><g clip-path="url(#fcfad4fd4b)"><g transform="matrix(1, 0, 0, 1, 41, 8)"><g clip-path="url(#00e4e943d5)"><g clip-path="url(#e9273fc393)"><path fill="#000000" d="M 0.71875 0.34375 L 8.96875 0.34375 L 8.96875 8.59375 L 0.71875 8.59375 Z M 0.71875 0.34375 " fill-opacity="1" fill-rule="nonzero"/></g></g></g></g><g clip-path="url(#5a24354719)"><g transform="matrix(1, 0, 0, 1, 25, 8)"><g clip-path="url(#3fc140675f)"><g clip-path="url(#9a24ae1caa)"><path fill="#000000" d="M 0.03125 0.34375 L 8.28125 0.34375 L 8.28125 8.59375 L 0.03125 8.59375 Z M 0.03125 0.34375 " fill-opacity="1" fill-rule="nonzero"/></g></g></g></g><g clip-path="url(#f27b66c25a)"><g transform="matrix(1, 0, 0, 1, 41, 33)"><g clip-path="url(#76e285af6d)"><g clip-path="url(#6a3aa4958d)"><path fill="#000000" d="M 0.71875 0.375 L 8.96875 0.375 L 8.96875 8.625 L 0.71875 8.625 Z M 0.71875 0.375 " fill-opacity="1" fill-rule="nonzero"/></g></g></g></g><g clip-path="url(#2abc69d674)"><g transform="matrix(1, 0, 0, 1, 0, 33)"><g clip-path="url(#3208a41528)"><g clip-path="url(#26cdcdf5a2)"><path fill="#000000" d="M 0 0.375 L 8.25 0.375 L 8.25 8.625 L 0 8.625 Z M 0 0.375 " fill-opacity="1" fill-rule="nonzero"/></g></g></g></g><g clip-path="url(#47dbb68c27)"><g transform="matrix(1, 0, 0, 1, 66, 33)"><g clip-path="url(#0e217df352)"><g clip-path="url(#117f6832e4)"><path fill="#000000" d="M 0.75 0.375 L 9 0.375 L 9 8.625 L 0.75 8.625 Z M 0.75 0.375 " fill-opacity="1" fill-rule="nonzero"/></g></g></g></g><g clip-path="url(#f0b56c8951)"><g transform="matrix(1, 0, 0, 1, 58, 33)"><g clip-path="url(#3f882de403)"><g clip-path="url(#00bd1ef3ad)"><path fill="#000000" d="M 0.40625 0.375 L 8.65625 0.375 L 8.65625 8.625 L 0.40625 8.625 Z M 0.40625 0.375 " fill-opacity="1" fill-rule="nonzero"/></g></g></g></g><g clip-path="url(#5d1d80b3f3)"><g transform="matrix(1, 0, 0, 1, 50, 33)"><g clip-path="url(#3a1aa92abf)"><g clip-path="url(#e15fb0eb3b)"><path fill="#000000" d="M 0.0625 0.375 L 8.3125 0.375 L 8.3125 8.625 L 0.0625 8.625 Z M 0.0625 0.375 " fill-opacity="1" fill-rule="nonzero"/></g></g></g></g><g clip-path="url(#788671a174)"><g transform="matrix(1, 0, 0, 1, 33, 33)"><g clip-path="url(#296b3fdd70)"><g clip-path="url(#41e9e948d0)"><path fill="#000000" d="M 0.375 0.375 L 8.625 0.375 L 8.625 8.625 L 0.375 8.625 Z M 0.375 0.375 " fill-opacity="1" fill-rule="nonzero"/></g></g></g></g><g clip-path="url(#89c5f14845)"><g transform="matrix(1, 0, 0, 1, 25, 33)"><g clip-path="url(#ddfc8a1c38)"><g clip-path="url(#0ca43c0c2a)"><path fill="#000000" d="M 0.03125 0.375 L 8.28125 0.375 L 8.28125 8.625 L 0.03125 8.625 Z M 0.03125 0.375 " fill-opacity="1" fill-rule="nonzero"/></g></g></g></g><g clip-path="url(#2db9847832)"><g transform="matrix(1, 0, 0, 1, 16, 33)"><g clip-path="url(#b16b431048)"><g clip-path="url(#1a9c878b50)"><path fill="#000000" d="M 0.6875 0.375 L 8.9375 0.375 L 8.9375 8.625 L 0.6875 8.625 Z M 0.6875 0.375 " fill-opacity="1" fill-rule="nonzero"/></g></g></g></g><g clip-path="url(#392cae51c3)"><g transform="matrix(1, 0, 0, 1, 8, 33)"><g clip-path="url(#b3dd2e8a15)"><g clip-path="url(#8fb8bc2444)"><path fill="#000000" d="M 0.34375 0.375 L 8.59375 0.375 L 8.59375 8.625 L 0.34375 8.625 Z M 0.34375 0.375 " fill-opacity="1" fill-rule="nonzero"/></g></g></g></g><g clip-path="url(#a7764f9db4)"><g transform="matrix(1, 0, 0, 1, 8, 25)"><g clip-path="url(#9e4120feb2)"><g clip-path="url(#f361637592)"><path fill="#000000" d="M 0.34375 0.03125 L 8.59375 0.03125 L 8.59375 8.28125 L 0.34375 8.28125 Z M 0.34375 0.03125 " fill-opacity="1" fill-rule="nonzero"/></g></g></g></g><g clip-path="url(#e896f53f2e)"><g transform="matrix(1, 0, 0, 1, 16, 25)"><g clip-path="url(#d212e9f747)"><g clip-path="url(#6994100b49)"><path fill="#000000" d="M 0.6875 0.03125 L 8.9375 0.03125 L 8.9375 8.28125 L 0.6875 8.28125 Z M 0.6875 0.03125 " fill-opacity="1" fill-rule="nonzero"/></g></g></g></g><g clip-path="url(#3b1dec5dad)"><g transform="matrix(1, 0, 0, 1, 50, 25)"><g clip-path="url(#67b018e4fc)"><g clip-path="url(#89beac6a17)"><path fill="#000000" d="M 0.0625 0.03125 L 8.3125 0.03125 L 8.3125 8.28125 L 0.0625 8.28125 Z M 0.0625 0.03125 " fill-opacity="1" fill-rule="nonzero"/></g></g></g></g><g clip-path="url(#31f5ce3b99)"><g transform="matrix(1, 0, 0, 1, 41, 25)"><g clip-path="url(#6244f90c1a)"><g clip-path="url(#8de55865ec)"><path fill="#000000" d="M 0.71875 0.03125 L 8.96875 0.03125 L 8.96875 8.28125 L 0.71875 8.28125 Z M 0.71875 0.03125 " fill-opacity="1" fill-rule="nonzero"/></g></g></g></g><g clip-path="url(#5d7ae29c95)"><g transform="matrix(1, 0, 0, 1, 25, 25)"><g clip-path="url(#32a4fbbb4f)"><g clip-path="url(#9624d2a474)"><path fill="#000000" d="M 0.03125 0.03125 L 8.28125 0.03125 L 8.28125 8.28125 L 0.03125 8.28125 Z M 0.03125 0.03125 " fill-opacity="1" fill-rule="nonzero"/></g></g></g></g><g clip-path="url(#25e284b5ae)"><g transform="matrix(1, 0, 0, 1, 33, 16)"><g clip-path="url(#abf6f3f2e6)"><g clip-path="url(#be3e387b64)"><path fill="#000000" d="M 0.375 0.6875 L 8.625 0.6875 L 8.625 8.9375 L 0.375 8.9375 Z M 0.375 0.6875 " fill-opacity="1" fill-rule="nonzero"/></g></g></g></g><g clip-path="url(#d1e478e8d0)"><g transform="matrix(1, 0, 0, 1, 50, 16)"><g clip-path="url(#54b4475942)"><g clip-path="url(#42fb0718f9)"><path fill="#000000" d="M 0.0625 0.6875 L 8.3125 0.6875 L 8.3125 8.9375 L 0.0625 8.9375 Z M 0.0625 0.6875 " fill-opacity="1" fill-rule="nonzero"/></g></g></g></g><g clip-path="url(#3282813375)"><g transform="matrix(1, 0, 0, 1, 16, 16)"><g clip-path="url(#b0335288d4)"><g clip-path="url(#8908fbcbfe)"><path fill="#000000" d="M 0.6875 0.6875 L 8.9375 0.6875 L 8.9375 8.9375 L 0.6875 8.9375 Z M 0.6875 0.6875 " fill-opacity="1" fill-rule="nonzero"/></g></g></g></g><g clip-path="url(#82a31a0917)"><g transform="matrix(1, 0, 0, 1, 25, 16)"><g clip-path="url(#63598ab2cf)"><g clip-path="url(#7ed29901f1)"><path fill="#000000" d="M 0.03125 0.6875 L 8.28125 0.6875 L 8.28125 8.9375 L 0.03125 8.9375 Z M 0.03125 0.6875 " fill-opacity="1" fill-rule="nonzero"/></g></g></g></g><g clip-path="url(#abe906bd4f)"><g transform="matrix(1, 0, 0, 1, 41, 16)"><g clip-path="url(#f9a2437a16)"><g clip-path="url(#9a4b339f42)"><path fill="#000000" d="M 0.71875 0.6875 L 8.96875 0.6875 L 8.96875 8.9375 L 0.71875 8.9375 Z M 0.71875 0.6875 " fill-opacity="1" fill-rule="nonzero"/></g></g></g></g><g clip-path="url(#1e02c96df2)"><g transform="matrix(1, 0, 0, 1, 33, 41)"><g clip-path="url(#50708c4023)"><g clip-path="url(#7c94130e96)"><path fill="#000000" d="M 0.375 0.71875 L 8.625 0.71875 L 8.625 8.96875 L 0.375 8.96875 Z M 0.375 0.71875 " fill-opacity="1" fill-rule="nonzero"/></g></g></g></g><g clip-path="url(#418f78a714)"><g transform="matrix(1, 0, 0, 1, 58, 41)"><g clip-path="url(#ae0b996f41)"><g clip-path="url(#ce09eb1f04)"><path fill="#000000" d="M 0.40625 0.71875 L 8.65625 0.71875 L 8.65625 8.96875 L 0.40625 8.96875 Z M 0.40625 0.71875 " fill-opacity="1" fill-rule="nonzero"/></g></g></g></g><g clip-path="url(#95e24fe969)"><g transform="matrix(1, 0, 0, 1, 8, 41)"><g clip-path="url(#6f891852da)"><g clip-path="url(#a900001491)"><path fill="#000000" d="M 0.34375 0.71875 L 8.59375 0.71875 L 8.59375 8.96875 L 0.34375 8.96875 Z M 0.34375 0.71875 " fill-opacity="1" fill-rule="nonzero"/></g></g></g></g><g clip-path="url(#686fecec73)"><g transform="matrix(1, 0, 0, 1, 16, 41)"><g clip-path="url(#0c7d957de7)"><g clip-path="url(#25169ea927)"><path fill="#000000" d="M 0.6875 0.71875 L 8.9375 0.71875 L 8.9375 8.96875 L 0.6875 8.96875 Z M 0.6875 0.71875 " fill-opacity="1" fill-rule="nonzero"/></g></g></g></g><g clip-path="url(#12fab71e97)"><g transform="matrix(1, 0, 0, 1, 50, 41)"><g clip-path="url(#3985b15a4a)"><g clip-path="url(#128383b5a3)"><path fill="#000000" d="M 0.0625 0.71875 L 8.3125 0.71875 L 8.3125 8.96875 L 0.0625 8.96875 Z M 0.0625 0.71875 " fill-opacity="1" fill-rule="nonzero"/></g></g></g></g><g clip-path="url(#df4eb0af15)"><g transform="matrix(1, 0, 0, 1, 41, 41)"><g clip-path="url(#72a930d991)"><g clip-path="url(#f240d5ab86)"><path fill="#000000" d="M 0.71875 0.71875 L 8.96875 0.71875 L 8.96875 8.96875 L 0.71875 8.96875 Z M 0.71875 0.71875 " fill-opacity="1" fill-rule="nonzero"/></g></g></g></g><g clip-path="url(#46ca47819c)"><g transform="matrix(1, 0, 0, 1, 25, 41)"><g clip-path="url(#3018a50933)"><g clip-path="url(#51eb79b62c)"><path fill="#000000" d="M 0.03125 0.71875 L 8.28125 0.71875 L 8.28125 8.96875 L 0.03125 8.96875 Z M 0.03125 0.71875 " fill-opacity="1" fill-rule="nonzero"/></g></g></g></g><g clip-path="url(#f5bc25d8a0)"><g transform="matrix(1, 0, 0, 1, 33, 50)"><g clip-path="url(#c73f44a35d)"><g clip-path="url(#be5e2b0a34)"><path fill="#000000" d="M 0.375 0.0625 L 8.625 0.0625 L 8.625 8.3125 L 0.375 8.3125 Z M 0.375 0.0625 " fill-opacity="1" fill-rule="nonzero"/></g></g></g></g><g clip-path="url(#b0129d1ca6)"><g transform="matrix(1, 0, 0, 1, 50, 50)"><g clip-path="url(#5dbc3a1122)"><g clip-path="url(#d33edf5eef)"><path fill="#000000" d="M 0.0625 0.0625 L 8.3125 0.0625 L 8.3125 8.3125 L 0.0625 8.3125 Z M 0.0625 0.0625 " fill-opacity="1" fill-rule="nonzero"/></g></g></g></g><g clip-path="url(#cc15f6541a)"><g transform="matrix(1, 0, 0, 1, 16, 50)"><g clip-path="url(#538e81fe27)"><g clip-path="url(#8df33ac74b)"><path fill="#000000" d="M 0.6875 0.0625 L 8.9375 0.0625 L 8.9375 8.3125 L 0.6875 8.3125 Z M 0.6875 0.0625 " fill-opacity="1" fill-rule="nonzero"/></g></g></g></g><g clip-path="url(#5baf728ce6)"><g transform="matrix(1, 0, 0, 1, 25, 50)"><g clip-path="url(#3c9a289b1e)"><g clip-path="url(#1644640c14)"><path fill="#000000" d="M 0.03125 0.0625 L 8.28125 0.0625 L 8.28125 8.3125 L 0.03125 8.3125 Z M 0.03125 0.0625 " fill-opacity="1" fill-rule="nonzero"/></g></g></g></g><g clip-path="url(#f9da1f24e9)"><g transform="matrix(1, 0, 0, 1, 41, 50)"><g clip-path="url(#06c707f27b)"><g clip-path="url(#167c163792)"><path fill="#000000" d="M 0.71875 0.0625 L 8.96875 0.0625 L 8.96875 8.3125 L 0.71875 8.3125 Z M 0.71875 0.0625 " fill-opacity="1" fill-rule="nonzero"/></g></g></g></g><g clip-path="url(#526e33f0f6)"><g transform="matrix(1, 0, 0, 1, 33, 58)"><g clip-path="url(#6f490a8af3)"><g clip-path="url(#a983b1e97d)"><path fill="#000000" d="M 0.375 0.40625 L 8.625 0.40625 L 8.625 8.65625 L 0.375 8.65625 Z M 0.375 0.40625 " fill-opacity="1" fill-rule="nonzero"/></g></g></g></g><g clip-path="url(#8dedf12a64)"><g transform="matrix(1, 0, 0, 1, 41, 58)"><g clip-path="url(#a5dd33e035)"><g clip-path="url(#5370a5a64b)"><path fill="#000000" d="M 0.71875 0.40625 L 8.96875 0.40625 L 8.96875 8.65625 L 0.71875 8.65625 Z M 0.71875 0.40625 " fill-opacity="1" fill-rule="nonzero"/></g></g></g></g><g clip-path="url(#f9b57f85a1)"><g transform="matrix(1, 0, 0, 1, 25, 58)"><g clip-path="url(#6dcd253af4)"><g clip-path="url(#198b894923)"><path fill="#000000" d="M 0.03125 0.40625 L 8.28125 0.40625 L 8.28125 8.65625 L 0.03125 8.65625 Z M 0.03125 0.40625 " fill-opacity="1" fill-rule="nonzero"/></g></g></g></g><g clip-path="url(#27777bb5ad)"><g transform="matrix(1, 0, 0, 1, 33, 66)"><g clip-path="url(#bedb1924d5)"><g clip-path="url(#544659463c)"><path fill="#000000" d="M 0.375 0.75 L 8.625 0.75 L 8.625 9 L 0.375 9 Z M 0.375 0.75 " fill-opacity="1" fill-rule="nonzero"/></g></g></g></g></g></g></svg>